<?xml version="1.0" encoding="iso-8859-1"?>
<!-- Generator: Adobe Illustrator 19.0.0, SVG Export Plug-In . SVG Version: 6.00 Build 0)  -->
<svg version="1.1" id="Layer_1" xmlns="http://www.w3.org/2000/svg" xmlns:xlink="http://www.w3.org/1999/xlink" x="0px" y="0px"
	 viewBox="0 0 328 328" style="enable-background:new 0 0 328 328;" xml:space="preserve">
<g id="XMLID_443_">
	<path id="XMLID_444_" d="M15,286.75h125.596c19.246,24.348,49.031,40,82.404,40c57.897,0,105-47.103,105-105s-47.103-105-105-105
		c-34.488,0-65.145,16.716-84.297,42.469c-7.764-1.627-15.695-2.469-23.703-2.469c-63.411,0-115,51.589-115,115
		C0,280.034,6.716,286.75,15,286.75z M223,146.75c41.355,0,75,33.645,75,75s-33.645,75-75,75s-75-33.645-75-75
		S181.645,146.75,223,146.75z"/>
	<path id="XMLID_447_" d="M195.701,234.482l-3.876,22.598c-0.483,2.813,0.674,5.657,2.983,7.335c2.309,1.679,5.37,1.9,7.898,0.571
		L223,254.318l20.293,10.668c1.098,0.576,2.296,0.861,3.489,0.861c0.008,0,0.015,0,0.021,0c4.142,0,7.499-3.357,7.499-7.5
		c0-0.629-0.077-1.24-0.223-1.824l-3.781-22.041l16.417-16.002c2.044-1.992,2.78-4.973,1.898-7.688
		c-0.882-2.715-3.23-4.694-6.055-5.104l-22.688-3.296l-10.145-20.559c-1.264-2.561-3.871-4.182-6.726-4.182
		s-5.462,1.621-6.726,4.182l-10.145,20.559l-22.688,3.296c-2.825,0.41-5.173,2.39-6.055,5.104c-0.883,2.715-0.146,5.695,1.897,7.688
		L195.701,234.482z"/>
	<path id="XMLID_448_" d="M115,1.25c-34.601,0-62.75,28.15-62.75,62.751S80.399,126.75,115,126.75
		c34.602,0,62.752-28.148,62.752-62.749S149.602,1.25,115,1.25z"/>
</g>
<g>
</g>
<g>
</g>
<g>
</g>
<g>
</g>
<g>
</g>
<g>
</g>
<g>
</g>
<g>
</g>
<g>
</g>
<g>
</g>
<g>
</g>
<g>
</g>
<g>
</g>
<g>
</g>
<g>
</g>
</svg>
