<?xml version="1.0" standalone="no"?>
<!DOCTYPE svg PUBLIC "-//W3C//DTD SVG 20010904//EN"
 "http://www.w3.org/TR/2001/REC-SVG-20010904/DTD/svg10.dtd">
<svg version="1.0" xmlns="http://www.w3.org/2000/svg"
 width="900.000000pt" height="1200.000000pt" viewBox="0 0 900.000000 1200.000000"
 preserveAspectRatio="xMidYMid meet">
<metadata>
Created by potrace 1.10, written by Peter Selinger 2001-2011
</metadata>
<g transform="translate(0.000000,1200.000000) scale(0.100000,-0.100000)"
fill="#762e2e" stroke="none">
<path d="M2070 11883 c-66 -22 -157 -70 -219 -117 -49 -37 -61 -55 -117 -166
-84 -170 -94 -220 -94 -458 0 -148 3 -201 15 -229 8 -19 15 -57 15 -83 0 -26
7 -64 15 -83 9 -23 15 -68 15 -120 0 -58 4 -89 15 -103 10 -14 14 -48 15 -130
0 -80 5 -123 16 -150 14 -32 16 -63 11 -174 -4 -94 -2 -140 6 -155 7 -11 15
-83 19 -160 11 -227 26 -393 37 -414 6 -11 11 -55 11 -99 0 -43 7 -101 15
-128 8 -27 15 -85 15 -129 1 -44 7 -98 15 -120 8 -22 15 -59 15 -82 0 -23 5
-54 11 -70 7 -15 16 -64 20 -108 16 -159 26 -220 37 -242 7 -12 12 -42 12 -66
0 -25 7 -61 15 -80 8 -20 15 -60 15 -89 1 -29 7 -64 15 -78 8 -14 15 -50 15
-80 0 -30 7 -66 15 -80 8 -14 14 -48 15 -77 0 -28 5 -55 10 -58 6 -3 10 -34
10 -69 0 -35 7 -85 15 -112 8 -27 15 -65 15 -84 0 -37 -40 -126 -81 -182 -36
-49 -47 -76 -149 -394 -6 -17 -10 -44 -10 -61 0 -17 -7 -47 -15 -66 -8 -20
-15 -56 -15 -81 0 -25 -5 -48 -10 -51 -6 -4 -10 -190 -10 -523 -1 -439 -3
-520 -15 -536 -22 -29 -22 -383 0 -412 11 -14 14 -52 15 -157 0 -76 5 -147 10
-157 6 -11 12 -55 13 -99 2 -43 8 -85 14 -92 6 -8 13 -36 16 -64 2 -27 12 -79
21 -115 9 -36 21 -83 25 -105 10 -47 49 -173 62 -197 4 -9 18 -44 29 -78 11
-34 34 -85 50 -114 17 -29 30 -58 30 -65 0 -15 111 -238 148 -299 54 -87 142
-219 211 -317 75 -106 141 -230 141 -265 0 -12 5 -31 12 -43 14 -26 25 -98 37
-253 5 -61 14 -120 20 -132 13 -24 15 -228 2 -236 -4 -3 -11 -28 -13 -55 -11
-112 -47 -102 -151 43 -23 32 -50 70 -59 85 -10 14 -22 33 -28 41 -6 8 -18 27
-28 42 -9 14 -37 57 -62 95 -25 37 -50 75 -55 85 -6 9 -34 51 -64 95 -51 73
-63 91 -109 160 -10 16 -29 48 -43 73 -13 25 -29 50 -35 55 -6 6 -48 78 -94
160 -46 83 -91 161 -100 175 -10 14 -52 93 -95 175 -43 83 -83 157 -90 165
-17 21 -245 477 -245 490 0 6 -25 62 -55 126 -30 64 -55 121 -55 126 0 5 -14
37 -32 71 -28 55 -57 130 -118 303 -10 28 -27 69 -39 92 -12 23 -21 49 -21 58
0 9 -6 30 -13 47 -29 68 -106 301 -117 352 -4 22 -20 74 -35 115 -15 41 -28
84 -30 95 -1 11 -7 37 -13 58 -28 89 -32 105 -32 128 -1 13 -7 35 -15 49 -8
14 -14 39 -15 55 0 17 -6 39 -14 50 -7 11 -16 34 -19 50 -3 17 -14 62 -25 100
-32 120 -42 164 -42 194 0 16 -7 45 -15 64 -8 20 -15 52 -15 72 0 20 -8 52
-17 73 -23 51 -34 215 -35 512 0 290 10 442 35 487 9 18 17 39 17 48 0 10 7
31 15 48 19 42 44 113 55 155 15 59 181 326 292 468 58 75 243 264 258 264 5
0 31 19 58 43 56 48 181 130 255 167 42 21 52 31 62 66 10 34 10 48 -1 74 -8
18 -14 58 -14 89 -1 31 -6 76 -11 101 -6 25 -11 66 -10 93 2 46 -5 56 -24 38
-9 -8 -42 -26 -195 -109 -69 -37 -114 -65 -125 -78 -16 -19 -137 -98 -172
-113 -18 -7 -33 -17 -33 -22 0 -12 -48 -56 -91 -84 -70 -45 -399 -391 -399
-419 0 -9 -65 -110 -87 -134 -12 -13 -47 -74 -77 -135 -50 -101 -63 -138 -98
-272 -6 -22 -14 -45 -19 -50 -4 -6 -11 -35 -15 -65 -4 -30 -11 -60 -16 -67 -5
-6 -12 -38 -15 -70 -3 -32 -11 -64 -17 -72 -37 -46 -35 -896 2 -933 7 -7 12
-40 12 -83 1 -42 6 -80 15 -95 8 -14 14 -48 15 -76 0 -28 7 -68 15 -87 8 -20
15 -55 15 -77 0 -23 5 -51 12 -63 6 -12 19 -62 29 -112 10 -49 25 -112 33
-140 9 -27 16 -59 16 -70 0 -11 7 -33 15 -49 8 -15 15 -38 15 -50 0 -12 7 -31
15 -42 8 -10 15 -32 15 -49 0 -16 12 -61 26 -100 14 -38 30 -89 35 -113 4 -23
13 -51 19 -61 5 -11 10 -30 10 -43 0 -13 4 -28 9 -34 4 -5 13 -27 19 -49 5
-22 20 -65 32 -95 12 -30 38 -102 57 -160 19 -58 48 -131 64 -162 16 -31 29
-65 29 -75 0 -11 7 -28 15 -39 8 -10 15 -29 15 -42 0 -12 4 -30 9 -40 26 -49
51 -104 51 -112 0 -6 11 -33 25 -62 14 -28 25 -57 25 -64 0 -6 8 -22 18 -35
10 -13 33 -60 51 -104 18 -44 44 -100 56 -125 13 -25 26 -56 30 -69 4 -13 20
-46 36 -72 15 -27 33 -67 39 -91 7 -23 30 -76 53 -118 45 -83 74 -141 107
-212 12 -26 33 -64 47 -85 14 -21 47 -79 74 -129 26 -50 52 -100 57 -110 19
-35 42 -92 42 -103 0 -6 4 -11 9 -11 5 0 13 -10 16 -22 4 -13 15 -32 25 -43 9
-11 27 -41 39 -66 12 -26 32 -58 44 -72 12 -13 36 -49 52 -78 17 -29 40 -71
52 -92 13 -22 23 -44 23 -48 0 -5 16 -29 35 -55 19 -25 35 -49 35 -54 0 -16
70 -127 95 -150 14 -13 25 -27 25 -32 0 -9 99 -160 133 -203 13 -16 30 -41 37
-55 7 -14 16 -27 19 -30 14 -11 71 -99 71 -108 0 -10 120 -157 188 -232 18
-19 32 -38 32 -43 0 -5 25 -35 56 -67 31 -32 65 -73 76 -91 11 -18 43 -57 72
-87 28 -29 53 -60 56 -69 6 -16 80 -105 183 -219 37 -41 67 -81 67 -87 0 -13
61 -79 151 -163 30 -28 81 -81 114 -117 33 -35 78 -75 100 -88 22 -13 83 -66
135 -119 58 -58 121 -110 161 -133 36 -21 81 -53 99 -72 19 -19 39 -35 45 -35
6 0 40 -19 76 -42 87 -57 204 -114 324 -158 33 -12 68 -27 79 -32 44 -23 277
-44 315 -29 15 7 57 13 93 15 37 1 73 7 80 13 7 6 33 14 58 18 25 4 58 16 73
27 16 11 47 26 70 33 58 18 150 61 194 91 21 14 58 35 83 46 47 22 77 43 163
118 29 25 65 52 80 60 16 8 70 57 121 110 50 52 101 102 111 111 11 8 66 62
122 120 56 57 134 136 173 174 39 39 80 86 90 106 11 20 33 48 49 62 17 14 41
40 53 59 13 19 39 54 58 79 19 24 40 51 45 60 24 38 74 104 117 157 26 31 48
62 48 67 0 6 16 23 35 39 19 16 35 36 35 45 0 8 18 36 40 62 22 26 40 50 40
53 0 11 60 93 89 120 17 17 31 35 31 41 0 6 13 29 30 51 16 21 30 43 30 48 0
4 12 25 28 45 27 36 38 53 70 104 9 15 36 54 60 85 24 31 61 90 83 130 23 39
44 72 48 72 4 0 18 20 30 45 12 25 33 58 45 73 13 15 31 43 42 62 10 19 37 62
59 95 61 93 65 98 76 128 6 15 14 27 18 27 4 0 18 21 32 46 36 68 44 82 61
101 8 10 32 54 52 98 21 44 54 104 73 133 32 49 153 284 153 297 0 3 20 36 44
74 47 72 199 378 261 526 20 50 44 97 51 106 8 8 14 20 14 25 0 6 11 34 25 62
14 29 25 56 25 62 0 8 25 63 51 112 5 10 9 27 9 38 0 11 11 41 24 68 38 72 66
142 66 164 0 10 10 38 22 61 12 23 34 77 48 120 15 43 32 83 38 89 7 7 12 26
12 43 0 17 18 85 41 151 22 65 44 135 48 154 4 19 13 45 19 57 7 12 12 39 12
60 0 21 7 47 15 57 8 11 15 36 15 55 0 20 7 45 15 55 8 11 15 30 15 42 0 12 6
37 14 55 7 19 21 77 31 129 9 52 23 116 31 142 8 26 14 62 14 81 0 19 7 54 15
77 8 23 15 59 15 79 0 20 7 54 15 76 8 22 14 73 15 113 0 40 6 83 12 95 37 63
37 872 1 909 -7 6 -13 25 -13 41 0 16 -6 43 -14 60 -8 18 -16 46 -19 62 -3 17
-17 62 -31 100 -14 39 -26 78 -26 87 0 10 -9 32 -20 50 -11 18 -20 39 -20 46
0 7 -11 37 -24 65 -13 29 -26 59 -30 67 -9 21 -25 46 -71 115 -23 33 -46 71
-52 85 -6 14 -20 37 -32 50 -11 14 -48 62 -81 107 -63 87 -310 338 -370 378
-19 13 -52 40 -73 59 -21 20 -41 36 -44 36 -3 0 -25 14 -50 30 -24 17 -46 30
-48 30 -2 0 -36 20 -75 44 -82 51 -128 65 -141 45 -5 -8 -9 -42 -9 -75 0 -34
-7 -78 -15 -97 -15 -37 -19 -165 -6 -219 4 -17 28 -42 69 -72 34 -25 66 -46
70 -46 4 0 29 -22 55 -50 25 -27 61 -57 79 -66 85 -44 327 -331 398 -474 21
-41 52 -102 69 -134 17 -32 31 -65 31 -73 0 -8 6 -26 14 -42 14 -27 40 -148
56 -261 4 -30 15 -73 23 -95 13 -33 16 -91 16 -330 0 -261 -2 -295 -19 -345
-11 -30 -20 -80 -20 -110 0 -30 -7 -73 -15 -95 -8 -22 -14 -60 -15 -84 0 -24
-4 -60 -10 -80 -28 -106 -53 -212 -60 -257 -4 -28 -13 -61 -19 -72 -6 -11 -11
-34 -11 -50 0 -16 -7 -43 -15 -58 -8 -16 -15 -43 -15 -61 0 -17 -4 -35 -10
-38 -5 -3 -10 -23 -10 -44 0 -20 -12 -66 -26 -102 -37 -93 -84 -249 -84 -281
0 -16 -12 -52 -27 -80 -48 -95 -53 -106 -53 -121 0 -9 -8 -30 -17 -49 -9 -18
-22 -45 -30 -60 -7 -14 -13 -35 -13 -45 0 -10 -4 -23 -9 -29 -8 -8 -80 -179
-116 -274 -7 -19 -33 -75 -58 -125 -24 -49 -48 -101 -51 -115 -4 -14 -25 -62
-47 -107 -22 -45 -46 -99 -53 -120 -23 -65 -259 -537 -281 -563 -7 -8 -18 -31
-24 -51 -6 -20 -32 -69 -58 -110 -25 -41 -56 -96 -68 -124 -12 -27 -55 -106
-94 -174 -39 -68 -71 -126 -71 -129 0 -3 -11 -19 -24 -36 -13 -17 -37 -58 -55
-91 -17 -33 -53 -94 -81 -135 -51 -77 -68 -105 -123 -201 -18 -30 -40 -66 -50
-80 -10 -13 -40 -55 -67 -94 -27 -38 -57 -79 -65 -90 -9 -11 -33 -45 -53 -76
-71 -107 -167 -242 -203 -283 -19 -23 -46 -57 -59 -76 -14 -19 -37 -48 -52
-63 -15 -16 -28 -34 -28 -41 0 -17 -43 -56 -61 -56 -37 0 -39 17 -39 332 l0
308 35 72 c19 40 44 84 54 98 28 38 94 138 111 168 8 15 27 47 42 72 26 45 82
198 117 320 11 36 24 79 29 95 24 71 32 103 32 131 1 16 7 40 15 54 8 14 15
43 15 65 0 22 7 51 15 65 8 14 14 46 15 71 0 26 7 62 15 82 8 19 12 37 9 39
-2 3 4 29 16 57 11 28 20 61 20 73 0 12 4 35 9 52 5 17 17 58 26 91 9 33 21
70 26 83 5 13 9 40 9 61 0 21 11 60 25 87 14 27 25 56 25 64 0 8 7 28 15 44 8
15 15 39 15 52 0 13 6 38 14 56 20 47 46 137 46 160 0 11 5 29 12 41 12 23 21
65 39 177 6 36 15 69 20 74 5 6 9 30 9 54 0 24 4 52 10 62 28 51 76 764 56
825 -6 17 -14 158 -18 315 -5 157 -11 355 -14 440 -3 88 -1 170 4 190 35 127
36 131 58 340 3 30 12 64 20 75 8 11 14 44 14 78 0 31 7 74 15 94 8 19 15 55
15 80 0 24 7 60 15 80 8 19 15 61 15 92 1 31 7 67 15 81 8 14 14 43 15 64 0
22 11 71 24 110 13 39 29 98 35 131 7 33 17 74 23 90 11 32 24 91 37 165 4 25
13 55 19 67 7 12 12 33 12 46 0 14 7 41 15 60 10 24 15 69 15 130 0 57 6 114
16 148 9 30 16 82 15 116 -1 40 4 73 13 92 11 20 16 57 16 109 0 45 7 98 15
122 21 61 21 375 0 427 -8 19 -15 52 -15 73 0 21 -7 54 -15 73 -8 20 -15 49
-15 64 0 15 -14 55 -30 88 -16 33 -30 65 -30 72 0 32 -185 195 -241 212 -24 8
-69 22 -99 32 -103 33 -148 34 -242 5 -80 -24 -89 -30 -169 -108 -88 -87 -102
-109 -182 -300 -20 -48 -37 -103 -37 -122 0 -19 -4 -38 -10 -41 -5 -3 -10 -16
-10 -28 0 -12 -7 -35 -15 -51 -9 -17 -15 -56 -15 -100 -1 -43 -6 -81 -15 -96
-9 -16 -14 -54 -15 -103 0 -43 -5 -88 -12 -100 -7 -12 -16 -69 -20 -127 -4
-58 -12 -130 -17 -160 -6 -30 -14 -83 -19 -117 -5 -33 -13 -66 -17 -73 -4 -6
-11 -35 -15 -63 -21 -121 -31 -172 -40 -182 -4 -5 -13 -32 -19 -60 -25 -118
-37 -164 -44 -171 -4 -4 -7 -22 -7 -40 0 -17 -7 -45 -15 -60 -8 -16 -15 -38
-15 -49 0 -12 -4 -25 -9 -30 -5 -6 -14 -32 -20 -60 -20 -98 -27 -118 -44 -129
-23 -15 -44 -1 -87 60 -87 123 -246 232 -340 234 -14 0 -36 7 -50 15 -31 18
-177 20 -217 3 -15 -6 -50 -15 -78 -19 -98 -15 -133 -26 -198 -62 -36 -21 -76
-37 -90 -37 -28 0 -52 24 -60 60 -9 42 -44 134 -67 179 -12 24 -65 87 -119
140 -86 87 -105 101 -167 123 -38 14 -85 31 -104 39 -24 9 -93 14 -224 17
-157 2 -192 0 -212 -13 -13 -8 -32 -15 -43 -15 -48 0 -177 -80 -271 -169 -84
-79 -112 -80 -131 -5 -25 98 -40 162 -49 202 -5 24 -13 48 -17 55 -4 6 -10 29
-14 52 -10 52 -29 132 -69 280 -18 66 -36 138 -40 160 -4 22 -17 69 -29 105
-12 36 -20 77 -17 91 3 14 1 30 -4 35 -5 5 -13 34 -18 64 -10 53 -16 75 -43
150 -7 19 -16 73 -20 120 -12 134 -28 243 -39 265 -5 11 -11 67 -14 125 -5
127 -20 255 -35 293 -6 16 -11 62 -11 103 0 40 -4 93 -10 116 -16 70 -32 178
-39 258 -4 41 -12 85 -19 97 -6 12 -12 46 -12 75 -1 29 -7 64 -15 78 -8 14
-14 43 -15 66 0 22 -4 44 -9 50 -9 11 -41 107 -41 126 0 7 -27 67 -60 133 -52
106 -69 130 -142 202 -100 97 -180 144 -256 147 -29 2 -58 8 -64 14 -16 16
-143 13 -198 -5z m157 -180 c57 -26 132 -92 139 -121 4 -15 10 -31 14 -37 6
-10 21 -62 56 -195 12 -49 24 -72 48 -92 l31 -27 -17 -31 c-22 -39 -22 -54 -3
-70 10 -8 15 -30 15 -65 0 -34 5 -57 15 -65 10 -8 14 -30 13 -70 -1 -32 3 -65
10 -72 6 -8 13 -67 16 -133 3 -66 8 -158 11 -205 6 -80 5 -87 -17 -107 -22
-21 -177 -73 -216 -73 -10 0 -27 -7 -38 -15 -10 -8 -27 -15 -37 -15 -10 0 -20
-7 -23 -15 -4 -10 -20 -15 -49 -15 -24 0 -47 -5 -51 -12 -5 -8 46 -9 208 -4
l215 7 31 -26 c20 -17 32 -37 35 -63 3 -20 22 -100 42 -177 20 -77 40 -154 44
-170 4 -17 13 -40 19 -52 7 -12 12 -37 12 -56 0 -19 7 -40 15 -47 11 -9 15
-33 15 -86 0 -40 5 -76 10 -79 6 -3 10 -39 10 -80 0 -41 5 -77 10 -80 6 -3 10
-24 10 -45 0 -21 7 -74 15 -117 8 -43 15 -89 15 -102 0 -29 -36 -71 -60 -71
-9 0 -21 -5 -28 -12 -18 -18 -83 -39 -137 -45 -53 -5 -183 -40 -200 -53 -6 -5
-28 -10 -49 -12 -45 -3 -59 -22 -24 -32 28 -7 268 2 395 15 51 5 97 9 102 9
20 0 46 -54 52 -109 4 -31 12 -83 18 -116 12 -59 27 -140 38 -202 3 -18 11
-38 19 -44 10 -8 14 -35 14 -89 0 -57 4 -81 15 -90 18 -15 21 -150 4 -182 -13
-24 -111 -70 -189 -89 -30 -7 -62 -19 -71 -26 -8 -7 -25 -13 -37 -13 -11 0
-24 -4 -27 -10 -3 -5 -18 -10 -33 -10 -15 0 -37 -6 -48 -14 -11 -8 -31 -16
-44 -18 -14 -1 -25 -10 -25 -18 0 -21 156 -20 330 2 71 9 133 14 137 12 13 -9
9 -30 -9 -46 -10 -9 -56 -36 -103 -61 -47 -24 -107 -56 -133 -71 -26 -14 -56
-26 -66 -26 -9 0 -21 -4 -27 -9 -5 -5 -70 -39 -144 -76 -74 -36 -142 -70 -150
-76 -8 -5 -30 -17 -47 -26 -31 -16 -34 -15 -52 1 -11 10 -23 32 -27 50 -3 17
-10 36 -14 41 -5 6 -10 37 -13 70 -8 98 -26 222 -37 250 -5 14 -10 41 -10 60
0 19 -4 37 -10 40 -5 3 -10 33 -10 65 0 33 -6 79 -14 102 -8 24 -16 72 -19
108 -3 36 -13 119 -21 185 -9 66 -21 163 -27 215 -6 52 -15 113 -21 135 -6 22
-12 58 -15 80 -3 22 -12 49 -19 60 -9 12 -14 47 -14 92 0 39 -4 75 -10 78 -6
3 -10 53 -10 114 0 59 -4 111 -9 117 -5 5 -12 79 -15 164 -12 271 -31 548 -38
556 -5 4 -8 59 -8 123 0 64 -5 143 -10 176 -22 133 -34 388 -34 720 0 197 4
363 10 380 23 73 152 225 190 225 6 0 17 7 24 15 17 20 90 19 137 -2z m4557
-1607 c20 5 33 0 58 -22 93 -84 134 -133 143 -174 13 -57 17 -412 5 -424 -6
-6 -10 -61 -10 -132 0 -92 -3 -124 -14 -133 -8 -6 -16 -26 -19 -44 -3 -18 -11
-57 -17 -87 -6 -30 -18 -86 -26 -125 -36 -180 -47 -217 -67 -235 -23 -22 -84
-27 -133 -11 -16 6 -86 12 -156 14 -106 4 -128 3 -128 -9 0 -9 11 -14 33 -14
18 0 38 -5 43 -10 11 -11 96 -45 149 -60 50 -15 142 -48 164 -60 22 -11 29
-54 11 -65 -5 -3 -10 -39 -11 -78 0 -40 -5 -94 -10 -122 -11 -51 -25 -151 -35
-240 -3 -27 -10 -54 -15 -59 -5 -6 -9 -27 -9 -47 0 -20 -7 -42 -15 -49 -8 -7
-15 -18 -15 -25 0 -8 -6 -26 -14 -42 -8 -15 -23 -50 -35 -76 l-21 -48 -178 5
c-97 2 -195 6 -216 8 -22 2 -41 -2 -43 -8 -5 -13 79 -47 197 -78 186 -50 204
-58 219 -95 6 -15 12 -124 13 -251 3 -193 0 -234 -15 -285 -18 -60 -32 -133
-45 -237 -12 -94 -20 -98 -186 -98 -101 1 -146 4 -158 14 -21 15 -146 21 -167
7 -11 -7 -1 -16 43 -35 32 -14 67 -26 77 -26 10 0 21 -4 24 -10 3 -5 21 -10
39 -10 18 0 41 -7 52 -15 10 -8 38 -15 60 -15 24 0 47 -6 54 -15 7 -8 23 -15
37 -15 23 0 71 -25 85 -45 11 -15 10 -639 -1 -650 -6 -6 -12 -71 -14 -145 -4
-157 -11 -184 -54 -235 -40 -46 -105 -67 -167 -53 -48 11 -246 106 -246 119 0
4 -11 14 -24 21 -36 20 -146 110 -146 120 0 16 24 18 185 22 88 1 171 8 185
13 l25 11 -25 5 c-14 4 -41 8 -60 11 -19 2 -82 16 -140 31 -58 14 -120 29
-138 32 -18 3 -35 9 -38 14 -3 5 -21 9 -40 9 -22 0 -49 10 -76 30 -22 17 -46
30 -53 30 -6 0 -18 11 -25 25 -14 26 -8 162 10 240 5 22 10 66 10 97 0 31 5
60 10 63 6 3 10 43 10 89 0 57 5 88 15 102 10 13 14 45 15 105 0 64 4 88 14
92 8 3 16 28 19 64 3 32 15 126 27 208 22 150 28 199 50 395 6 58 25 161 42
230 17 69 33 142 35 163 3 20 9 40 14 43 5 3 9 22 9 43 0 22 6 44 15 51 8 7
15 28 15 48 0 19 6 43 13 51 16 19 44 114 97 326 7 28 23 84 35 125 12 41 27
100 33 130 6 30 14 69 17 85 4 17 10 54 14 83 4 28 12 57 19 64 7 7 12 43 12
89 0 56 4 78 14 82 9 4 15 30 19 79 16 209 72 510 113 613 13 33 24 69 24 81
0 25 44 117 76 159 13 18 24 36 24 42 0 29 157 142 179 128 5 -2 17 2 27 10
16 11 21 11 35 -1 11 -10 26 -13 43 -8z m-2639 -1595 c3 -5 20 -13 38 -17 42
-9 121 -86 143 -138 13 -32 18 -82 22 -229 4 -176 6 -187 23 -182 12 4 22 -1
29 -16 10 -18 7 -29 -24 -73 -31 -45 -36 -61 -36 -109 0 -56 -15 -84 -26 -50
-14 40 -100 211 -126 250 -35 52 -139 143 -195 172 -23 11 -44 25 -48 31 -3 5
-17 10 -29 10 -13 0 -37 7 -52 15 -41 21 -246 21 -264 0 -17 -20 -99 -20 -106
0 -7 18 28 94 74 157 45 64 155 144 218 159 27 6 56 15 64 20 21 11 287 11
295 0z m1145 -437 c35 -11 64 -32 103 -72 78 -83 82 -108 68 -492 -16 -448
-18 -469 -31 -485 -19 -23 -65 -19 -155 15 -98 37 -257 42 -320 10 -22 -11
-53 -20 -70 -20 -29 0 -55 -15 -55 -31 0 -4 46 -10 103 -12 56 -3 183 -11 281
-19 202 -17 206 -18 206 -97 0 -83 -58 -104 -158 -56 -29 14 -63 25 -78 25
-14 0 -34 5 -45 11 -45 23 -284 27 -307 4 -12 -11 31 -43 66 -48 20 -3 84 -17
142 -31 58 -14 128 -26 157 -26 29 0 63 -5 76 -11 17 -8 35 -8 63 0 34 9 41 8
61 -11 29 -27 29 -57 1 -93 -20 -26 -25 -27 -77 -21 -31 3 -130 10 -221 16
-91 5 -190 13 -220 16 l-55 7 24 -27 c14 -14 32 -26 42 -26 9 0 19 -6 22 -14
3 -7 18 -16 34 -19 161 -34 196 -38 313 -35 l125 3 -2 -125 c-2 -169 -17 -338
-31 -352 -16 -16 -16 -220 0 -236 13 -13 16 -88 5 -116 -7 -18 -8 -18 -28 0
-11 10 -37 52 -57 93 -20 42 -41 82 -47 89 -28 38 -99 112 -107 112 -6 0 -21
9 -34 19 -66 52 -238 66 -361 29 -99 -29 -196 -126 -277 -280 -42 -79 -58 -38
-30 76 17 69 31 103 79 196 14 26 24 64 25 90 0 25 7 54 15 64 11 14 15 47 15
117 0 55 4 101 10 104 6 3 10 45 10 92 0 53 5 97 15 116 8 18 16 68 18 112 2
44 11 106 20 138 9 32 17 75 17 95 0 20 4 53 10 72 5 19 14 78 19 130 6 52 22
167 37 255 15 88 29 185 31 215 3 30 9 59 14 65 5 5 9 30 9 55 0 25 7 55 15
66 8 10 15 29 15 41 0 34 105 134 178 171 43 21 78 32 107 32 24 0 47 5 50 10
10 15 111 12 165 -6z m-1594 -121 c119 -96 224 -227 224 -282 0 -15 7 -36 15
-47 18 -24 18 -54 0 -78 -8 -11 -12 -29 -9 -41 10 -42 -166 -236 -253 -278
-32 -16 -65 -33 -73 -38 -35 -22 -81 -39 -104 -39 -27 0 -96 69 -96 97 0 10
-18 54 -40 99 -42 84 -92 133 -152 148 -36 8 -35 1 7 -46 32 -34 57 -80 94
-171 6 -15 11 -45 11 -67 0 -33 -5 -41 -35 -60 -40 -25 -58 -22 -126 21 -43
27 -138 143 -179 217 -8 15 -21 38 -30 52 -26 44 -39 92 -30 110 15 28 86 88
137 115 26 14 62 34 78 45 17 11 47 28 67 40 20 11 39 24 42 29 3 5 25 19 48
31 44 23 213 128 258 161 42 30 92 24 146 -18z m255 -18 c70 -52 114 -113 163
-227 22 -50 22 -204 0 -255 -52 -119 -70 -148 -146 -230 -26 -28 -48 -57 -48
-63 0 -6 -96 -106 -212 -223 -214 -214 -350 -328 -534 -448 -48 -31 -259 -129
-278 -129 -8 0 -19 -7 -26 -15 -18 -21 -270 -22 -308 -1 -36 19 -139 66 -146
66 -3 0 -6 -7 -6 -15 0 -13 22 -36 105 -110 33 -30 135 -80 205 -101 57 -17
213 -18 241 -1 18 10 23 9 40 -12 16 -19 19 -39 19 -119 0 -53 4 -109 9 -126
5 -17 16 -58 24 -91 8 -33 23 -91 32 -130 29 -118 45 -188 54 -230 7 -37 27
-79 102 -215 41 -73 153 -206 214 -253 110 -83 306 -177 370 -177 14 0 42 -7
62 -15 26 -11 75 -15 184 -15 88 0 150 -4 154 -10 3 -5 27 -10 53 -10 43 0
142 -27 159 -43 3 -4 28 -7 54 -7 26 0 50 -4 53 -8 5 -8 76 -30 166 -52 34 -9
265 -82 325 -103 49 -17 218 -95 263 -121 88 -50 262 -218 293 -281 11 -22 36
-69 55 -104 50 -93 74 -180 74 -267 0 -41 -4 -82 -8 -92 -105 -220 -177 -314
-332 -430 -95 -72 -95 -72 -215 -131 -55 -27 -103 -52 -107 -56 -16 -17 -176
-64 -215 -65 -24 0 -43 -4 -43 -9 0 -28 256 -24 360 6 110 32 168 52 203 73
20 12 41 20 46 18 11 -4 -74 -135 -108 -166 -14 -13 -46 -40 -71 -60 -25 -20
-58 -48 -75 -63 -16 -15 -50 -38 -75 -50 -25 -13 -50 -28 -57 -35 -6 -6 -58
-29 -115 -51 -156 -60 -171 -65 -203 -71 -16 -3 -35 -12 -41 -20 -7 -10 -19
-13 -36 -9 -17 5 -30 2 -38 -8 -10 -12 -8 -15 12 -19 37 -9 476 -27 704 -30
237 -2 244 -4 283 -82 20 -40 21 -55 21 -563 l0 -521 -57 -63 c-114 -123 -418
-397 -441 -397 -5 0 -17 -9 -28 -21 -10 -12 -62 -48 -115 -80 -53 -33 -104
-68 -114 -79 -10 -11 -34 -22 -54 -26 -20 -3 -65 -16 -101 -29 -36 -13 -101
-29 -145 -35 -69 -11 -89 -10 -143 4 -35 9 -74 16 -87 16 -30 0 -53 9 -195 78
-63 31 -140 74 -170 97 -30 23 -72 51 -92 64 -21 12 -38 26 -38 31 0 5 -11 12
-24 17 -13 4 -57 37 -97 72 -101 88 -515 506 -564 570 -22 29 -68 83 -102 121
-35 38 -63 73 -63 79 0 5 -26 38 -57 74 -119 134 -116 127 -110 247 3 58 11
148 17 200 14 107 8 463 -9 520 -5 19 -11 64 -13 100 -3 60 -1 65 18 68 12 2
34 -8 50 -21 16 -13 47 -34 69 -46 22 -12 47 -25 55 -30 103 -58 253 -118 361
-145 200 -49 462 -55 417 -10 -8 9 -42 20 -74 25 -32 6 -75 13 -94 16 -19 3
-44 12 -56 19 -11 8 -23 12 -26 9 -3 -3 -18 1 -34 10 -16 8 -35 15 -41 15 -7
0 -39 12 -70 27 -32 14 -67 30 -78 34 -63 25 -114 50 -148 73 -20 14 -63 37
-95 52 -31 15 -69 38 -85 52 -15 14 -56 49 -92 76 -127 100 -205 167 -205 178
0 6 -12 25 -27 44 -53 63 -100 129 -129 181 -16 29 -32 53 -36 53 -10 0 -10
34 -1 43 3 4 34 -18 67 -49 78 -71 81 -74 141 -114 28 -19 73 -49 100 -68 28
-19 70 -43 95 -54 25 -10 56 -26 70 -34 14 -7 58 -30 98 -49 73 -35 112 -44
112 -25 0 13 -72 79 -87 80 -13 0 -333 297 -333 309 0 4 -25 36 -56 70 -32 34
-67 77 -80 94 -52 71 -104 149 -104 155 0 3 -9 15 -19 26 -26 29 -119 203
-159 301 -19 44 -40 93 -48 108 -8 16 -14 37 -14 47 0 9 -7 23 -15 30 -8 7
-15 23 -15 36 0 12 -4 26 -10 29 -5 3 -10 18 -10 33 0 15 -10 54 -21 87 -12
33 -25 80 -30 105 -4 25 -15 74 -23 110 -9 36 -21 85 -26 110 -16 72 -50 277
-61 375 -6 49 -15 97 -20 106 -5 10 -9 47 -9 82 0 48 -4 66 -15 70 -11 5 -15
40 -20 174 -12 374 -15 827 -5 837 5 5 10 40 10 76 0 39 6 74 14 85 7 11 16
34 19 50 7 40 61 185 84 225 49 88 89 144 124 175 73 65 146 112 194 125 28 7
61 19 75 26 50 26 245 104 261 104 23 0 41 -24 94 -124 80 -154 154 -246 245
-305 85 -55 134 -71 223 -71 86 0 151 16 242 61 33 16 66 29 73 29 31 0 155
86 228 158 210 206 234 395 79 621 -72 105 -73 126 -4 76z m359 -682 c0 -78
-46 -638 -60 -735 -6 -37 -10 -92 -10 -122 0 -30 -4 -58 -10 -61 -5 -3 -10
-48 -10 -98 0 -72 4 -101 20 -131 36 -72 52 -214 24 -223 -5 -2 -25 29 -43 69
-62 135 -147 240 -232 283 -77 40 -190 54 -276 34 -163 -39 -263 -119 -321
-257 -23 -53 -36 -71 -54 -72 -17 0 -19 49 -4 85 9 21 16 50 16 65 0 15 6 32
13 38 7 6 19 34 27 62 8 28 18 53 22 56 4 3 8 22 8 42 0 33 8 45 58 93 31 30
86 79 122 109 36 29 70 58 75 64 19 21 130 101 155 113 14 6 61 14 105 17 129
8 245 45 245 77 0 5 -51 10 -112 11 -105 3 -113 5 -116 23 -5 36 59 86 135
106 77 19 97 45 44 55 -44 9 -41 44 8 108 21 28 58 89 81 136 76 152 90 160
90 53z m-405 -1098 c17 -4 56 -33 88 -64 60 -59 101 -122 132 -206 10 -27 22
-56 28 -63 5 -7 12 -47 15 -88 4 -69 3 -77 -19 -101 -76 -81 -242 -126 -390
-104 -126 19 -289 115 -289 170 0 6 -7 23 -16 37 -18 26 -16 46 11 144 27 100
62 156 131 215 39 33 75 55 89 55 13 0 27 5 30 11 8 11 136 7 190 -6z m1119
-230 c62 -32 93 -68 152 -180 70 -132 85 -276 34 -331 -55 -58 -161 -88 -310
-88 -122 0 -115 -2 -254 71 -44 23 -96 74 -96 93 0 10 -7 23 -15 30 -10 9 -15
32 -15 75 0 43 5 66 15 75 8 7 15 21 15 32 0 53 102 183 174 221 63 34 75 36
161 34 67 -2 90 -7 139 -32z m655 -448 c36 -20 80 -44 98 -52 17 -8 35 -20 39
-26 9 -15 304 -156 352 -168 20 -6 55 -15 77 -21 22 -6 51 -14 65 -17 14 -3
34 -12 45 -19 22 -16 115 -18 162 -5 59 17 65 -18 28 -169 -9 -36 -19 -89 -22
-118 -3 -29 -9 -55 -14 -58 -5 -3 -9 -27 -9 -53 0 -29 -6 -53 -14 -60 -8 -6
-16 -24 -19 -39 -6 -38 -53 -271 -72 -362 -9 -41 -23 -97 -31 -124 -7 -26 -14
-68 -14 -92 0 -23 -4 -46 -10 -49 -5 -3 -10 -24 -10 -46 0 -22 -5 -49 -11 -60
-5 -11 -12 -43 -14 -70 -2 -28 -8 -56 -14 -62 -6 -6 -11 -32 -11 -58 0 -26 -4
-51 -10 -54 -5 -3 -10 -32 -10 -63 0 -32 -6 -66 -14 -77 -16 -23 -46 -140 -46
-177 0 -15 -4 -38 -9 -51 -5 -14 -14 -59 -20 -101 -6 -43 -17 -88 -24 -101
-18 -35 -205 -223 -249 -251 -20 -13 -51 -37 -68 -54 -17 -16 -33 -30 -36 -30
-2 0 -39 -20 -82 -45 -102 -59 -220 -101 -310 -110 -69 -7 -74 -6 -70 11 2 10
44 49 93 87 201 152 302 236 399 331 143 140 201 234 128 204 -64 -25 -135
-50 -162 -55 -14 -3 -32 -11 -40 -18 -8 -7 -31 -16 -50 -19 -93 -18 -100 -18
-100 -5 0 16 89 150 108 162 6 4 12 16 12 25 0 9 10 27 23 38 22 21 120 210
150 289 8 22 22 69 32 105 9 36 21 79 26 96 5 17 9 78 9 137 0 120 17 165 71
187 63 27 169 161 169 216 0 16 -26 19 -35 4 -10 -17 -127 -67 -173 -75 -39
-6 -44 -5 -70 27 -15 18 -61 67 -102 108 -59 59 -94 85 -165 119 -49 25 -102
50 -117 58 -14 7 -38 13 -51 13 -14 0 -29 5 -32 10 -3 6 -30 10 -58 10 -30 1
-69 9 -92 20 -22 11 -48 19 -57 20 -27 0 -118 42 -112 52 3 4 33 8 67 8 97 0
248 58 348 136 58 45 159 151 159 167 0 12 -39 2 -115 -28 -118 -46 -288 -69
-520 -69 -179 -1 -216 2 -249 17 -21 9 -46 17 -55 17 -22 0 -221 100 -221 111
0 13 46 11 180 -5 114 -14 151 -13 323 12 32 5 71 18 87 30 16 12 35 22 41 22
7 0 50 19 97 43 69 35 92 52 131 102 55 71 71 105 71 147 0 18 9 41 21 54 l21
22 46 -31 c25 -18 75 -49 111 -70z m-1413 -83 c30 -46 -5 -82 -116 -118 -177
-59 -292 -60 -454 -5 -70 24 -84 31 -154 77 -63 41 -53 60 19 38 119 -36 182
-46 301 -46 94 0 129 4 144 15 10 8 40 15 65 15 29 0 51 6 59 15 7 8 20 15 29
15 9 0 24 7 34 14 23 18 54 9 73 -20z"/>
<path d="M3190 3210 c19 -13 30 -13 30 0 0 6 -10 10 -22 10 -19 0 -20 -2 -8
-10z"/>
<path d="M4278 9865 c-3 -4 -94 -7 -202 -9 -139 -1 -199 -5 -208 -14 -8 -8
-48 -12 -117 -12 -73 -1 -114 -5 -131 -15 -14 -8 -52 -15 -85 -15 -33 -1 -78
-7 -100 -15 -22 -8 -66 -17 -97 -21 -44 -5 -58 -10 -58 -23 0 -17 21 -79 32
-96 3 -6 9 -27 13 -48 4 -20 11 -40 16 -43 5 -3 9 -15 9 -27 0 -12 9 -39 20
-60 11 -20 20 -44 20 -52 0 -8 8 -19 19 -24 20 -11 88 -4 97 10 3 5 37 9 75 9
39 0 85 7 106 15 19 8 57 15 84 15 26 0 60 5 76 11 39 15 1027 15 1066 0 16
-6 86 -11 156 -11 83 0 131 -4 139 -12 6 -6 49 -13 94 -16 46 -2 90 -8 99 -13
9 -5 49 -11 90 -14 40 -3 77 -9 83 -14 6 -5 47 -12 91 -16 44 -4 85 -11 90
-15 6 -4 35 -10 65 -14 30 -3 65 -7 78 -8 19 -3 26 4 37 36 8 22 17 69 21 105
3 36 12 77 19 91 7 14 14 47 16 75 4 46 2 51 -23 63 -15 7 -51 15 -80 19 -29
3 -72 11 -96 19 -23 8 -60 14 -82 14 -21 0 -41 4 -44 9 -3 5 -31 12 -62 16
-30 3 -71 13 -89 21 -19 8 -59 14 -88 14 -30 0 -71 7 -90 15 -25 10 -71 15
-147 15 -69 0 -120 5 -133 12 -15 8 -92 14 -227 17 -113 2 -282 6 -375 8 -94
2 -173 1 -177 -2z"/>
</g>
</svg>
