<?xml version="1.0" standalone="no"?>
<!DOCTYPE svg PUBLIC "-//W3C//DTD SVG 20010904//EN"
 "http://www.w3.org/TR/2001/REC-SVG-20010904/DTD/svg10.dtd">
<svg version="1.0" xmlns="http://www.w3.org/2000/svg"
 width="300.000000pt" height="400.000000pt" viewBox="0 0 300.000000 400.000000"
 preserveAspectRatio="xMidYMid meet">
<metadata>
Created by potrace 1.10, written by Peter Selinger 2001-2011
</metadata>
<g transform="translate(0.000000,400.000000) scale(0.100000,-0.100000)"
fill="#7b3636" stroke="none">
<path d="M700 3967 c0 -5 -9 -7 -20 -4 -13 3 -18 1 -13 -6 4 -7 0 -8 -11 -4
-10 4 -15 3 -11 -3 3 -5 -5 -16 -18 -25 -13 -8 -30 -26 -37 -40 -7 -13 -17
-22 -21 -19 -5 3 -6 -2 -3 -10 3 -9 2 -16 -2 -16 -5 0 -9 -58 -9 -129 0 -71 3
-127 6 -125 10 6 22 -153 13 -167 -4 -8 -3 -10 4 -5 8 5 12 -5 13 -31 0 -21 5
-90 10 -153 4 -63 8 -128 8 -144 0 -15 5 -33 10 -40 5 -6 12 -49 15 -96 3 -47
19 -152 35 -235 47 -239 45 -222 18 -264 -24 -36 -55 -119 -63 -169 -14 -81
-22 -515 -12 -612 6 -58 11 -115 11 -127 -1 -13 3 -23 9 -23 5 0 7 -4 3 -9
-16 -27 88 -260 169 -381 31 -46 59 -93 61 -105 2 -11 4 -20 6 -20 4 0 16
-148 19 -244 0 -11 3 -11 15 -1 13 11 15 7 15 -26 l-1 -39 -30 35 c-94 108
-311 467 -408 675 -28 61 -58 123 -66 138 -8 16 -15 34 -15 41 0 7 -14 46 -30
86 -17 40 -32 83 -34 94 -3 12 -24 89 -49 171 -58 197 -72 283 -71 440 1 156
20 218 104 339 59 85 119 143 192 184 26 15 48 32 48 38 0 6 12 10 28 9 19 -2
20 -1 4 2 -13 3 -20 9 -16 15 4 7 2 8 -5 4 -8 -6 -10 3 -5 33 5 30 3 41 -6 41
-9 0 -11 9 -6 30 6 34 -8 40 -24 10 -6 -11 -16 -17 -22 -14 -6 4 -16 0 -23 -9
-6 -9 -17 -17 -24 -19 -7 -2 -26 -15 -43 -30 -16 -16 -34 -26 -38 -23 -4 3
-15 -7 -25 -21 -9 -14 -22 -23 -29 -21 -8 3 -35 -18 -62 -46 l-49 -52 51 45
c29 26 22 18 -15 -19 -36 -36 -60 -61 -53 -57 11 7 12 4 3 -13 -7 -11 -14 -21
-17 -21 -3 0 -2 5 2 12 4 7 3 8 -4 4 -6 -4 -9 -13 -6 -21 3 -7 -4 -18 -16 -25
-13 -7 -19 -17 -16 -26 4 -10 2 -12 -6 -8 -7 5 -9 2 -5 -9 3 -8 -1 -21 -8 -27
-8 -7 -12 -16 -10 -21 6 -9 -20 -111 -37 -146 -6 -12 -8 -40 -4 -63 4 -27 3
-39 -4 -35 -6 4 -10 -23 -10 -77 0 -59 3 -79 10 -68 7 11 8 2 4 -27 -5 -30 -3
-43 5 -43 7 0 10 -13 8 -35 -2 -19 -1 -32 3 -30 10 6 22 -84 13 -98 -3 -5 -1
-7 4 -4 10 6 22 -44 26 -100 0 -13 5 -23 10 -23 4 0 5 -10 2 -21 -5 -16 -4
-19 5 -14 9 5 10 2 5 -14 -3 -11 -2 -21 3 -21 6 0 13 -11 16 -24 3 -13 9 -32
13 -42 4 -12 3 -15 -5 -10 -8 5 -10 2 -6 -8 3 -9 10 -13 15 -10 8 4 14 -25 10
-49 0 -4 4 -7 10 -7 5 0 9 -8 8 -17 -3 -32 2 -59 8 -44 6 16 35 -50 37 -86 0
-11 5 -19 10 -15 5 3 6 -2 3 -12 -4 -10 -3 -15 3 -11 6 3 11 -2 12 -12 0 -10
2 -23 2 -29 1 -6 9 -19 19 -28 16 -17 21 -35 18 -65 -2 -8 2 -10 10 -5 9 5 10
2 6 -10 -4 -9 -3 -15 2 -12 11 7 35 -50 26 -63 -3 -6 1 -14 10 -17 9 -4 14
-13 11 -21 -4 -9 -2 -11 6 -7 8 5 9 2 5 -10 -5 -11 -3 -15 5 -10 8 5 9 2 5
-10 -4 -9 -3 -14 2 -11 9 5 27 -32 23 -48 -1 -5 3 -5 9 -1 9 5 10 2 6 -10 -4
-9 -3 -15 2 -12 11 7 33 -43 25 -56 -5 -7 -2 -8 6 -3 10 6 12 4 7 -9 -5 -11
-3 -15 5 -10 8 5 9 2 5 -10 -4 -9 -3 -15 1 -12 5 3 16 -8 26 -25 9 -16 14 -29
10 -29 -4 0 0 -6 11 -13 10 -8 15 -19 11 -26 -5 -7 -2 -10 6 -9 7 2 12 -5 11
-15 0 -10 2 -16 5 -13 6 6 42 -43 42 -57 0 -5 -5 -5 -12 -1 -7 4 -8 3 -4 -5 4
-6 11 -9 15 -7 7 5 47 -53 44 -64 -1 -3 5 -9 13 -13 8 -5 12 -12 9 -18 -4 -5
-1 -9 5 -9 6 0 8 -5 4 -12 -4 -6 -3 -8 3 -5 11 7 66 -69 66 -90 0 -7 10 -21
21 -30 21 -18 21 -18 2 5 -11 12 -17 22 -14 22 13 0 167 -198 160 -205 -4 -5
-2 -5 5 -1 14 7 36 -27 25 -39 -4 -3 -2 -5 4 -3 6 2 40 -24 74 -57 35 -33 77
-73 94 -90 64 -61 125 -102 198 -136 26 -12 46 -25 43 -28 -2 -4 4 -7 13 -7
46 0 73 -5 69 -12 -3 -4 14 -8 37 -9 29 -2 37 0 26 7 -15 10 -11 10 68 14 9 1
22 6 27 12 6 6 26 17 45 24 19 7 42 19 50 25 19 15 52 29 63 26 5 -1 6 3 3 8
-8 12 21 34 34 26 5 -3 14 4 19 17 11 29 68 84 78 75 10 -10 42 23 37 37 -3 7
4 21 16 31 11 10 20 14 21 9 0 -5 4 0 8 11 5 11 14 20 22 20 8 0 14 9 14 20 0
11 6 20 13 20 6 0 13 5 13 10 1 6 14 26 30 46 16 20 29 42 29 49 0 7 7 10 16
6 9 -3 12 -2 9 4 -7 12 32 65 48 65 5 0 11 11 12 24 1 13 8 29 17 35 8 6 17
19 21 29 4 10 11 16 16 13 5 -3 8 2 7 12 0 9 4 16 11 15 8 -2 10 4 6 14 -4 11
-3 14 6 9 6 -4 10 -4 9 1 -4 13 35 72 44 67 5 -3 8 -2 7 3 -4 21 2 34 13 27 6
-4 8 -3 4 4 -8 13 54 113 66 106 4 -3 7 -2 6 3 -5 15 24 73 33 67 5 -3 9 -2 8
3 -4 21 2 34 13 27 7 -4 8 -3 4 4 -8 14 24 73 36 66 4 -3 9 1 9 8 4 44 19 79
30 73 5 -3 6 0 3 8 -3 8 0 18 7 23 8 5 10 3 4 -6 -5 -9 -4 -11 4 -6 6 4 9 11
6 16 -8 12 6 41 16 34 5 -3 10 1 11 8 5 47 18 79 29 73 5 -3 6 2 2 11 -5 13
-3 15 7 9 8 -5 11 -4 6 3 -8 13 11 64 27 74 7 4 12 13 13 20 0 7 2 21 2 31 1
10 6 15 12 12 6 -4 7 1 3 11 -5 13 -3 15 7 9 9 -5 11 -4 6 4 -8 13 2 53 12 47
4 -2 8 10 9 27 2 18 8 36 15 42 7 5 13 15 14 20 1 37 18 84 27 78 6 -3 7 -1 3
5 -9 14 4 63 14 57 5 -3 6 4 3 15 -3 12 0 20 7 20 7 0 9 8 5 21 -5 16 -4 19 5
14 10 -6 11 -1 6 19 -4 17 -3 25 3 22 5 -3 8 2 7 11 -2 10 0 29 5 43 4 14 11
48 14 75 6 39 9 46 16 30 4 -12 5 0 2 29 -4 32 -3 47 4 43 6 -4 8 3 5 19 -2
14 1 36 8 49 8 16 11 40 7 70 -4 29 -3 44 3 40 6 -4 10 17 10 55 0 34 -4 59
-9 56 -5 -4 -7 12 -4 35 3 23 1 44 -4 48 -5 3 -14 24 -20 46 -6 22 -14 49 -19
59 -5 14 -4 17 4 12 8 -5 10 -2 6 8 -3 9 -10 16 -16 16 -5 0 -6 5 -3 10 3 6 1
10 -5 10 -6 0 -9 4 -5 9 7 12 -15 62 -25 56 -8 -5 -24 24 -21 38 0 4 -6 10
-14 13 -8 3 -13 9 -10 14 2 4 -3 16 -11 26 -9 10 -12 13 -8 5 5 -10 3 -12 -5
-7 -7 5 -10 14 -8 21 5 12 -79 104 -95 105 -5 0 -13 0 -19 0 -5 0 -7 5 -4 10
4 6 2 9 -4 8 -5 -2 -17 6 -26 17 -9 11 -13 13 -9 5 5 -8 -16 2 -45 23 -60 43
-87 44 -71 2 12 -33 12 -38 1 -30 -6 3 -8 -15 -6 -46 2 -35 9 -55 19 -61 40
-23 136 -111 168 -155 48 -64 83 -145 97 -217 14 -73 14 -234 1 -307 -5 -30
-12 -74 -15 -98 -4 -25 -22 -99 -42 -165 -19 -67 -36 -128 -38 -136 -1 -8 -9
-32 -18 -54 -10 -21 -17 -41 -17 -43 0 -3 -6 -19 -14 -36 -8 -18 -40 -90 -71
-162 -80 -182 -121 -263 -265 -520 -12 -22 -28 -47 -34 -55 -7 -8 -22 -32 -34
-53 -31 -54 -204 -287 -214 -287 -4 0 -8 47 -8 104 0 99 12 166 31 166 12 0
89 162 89 187 0 11 3 23 7 27 4 3 8 16 10 27 2 11 17 78 34 147 17 70 32 134
33 142 1 9 5 20 8 25 11 19 57 190 71 266 10 53 13 136 12 275 -2 109 -3 200
-4 202 -5 5 -3 100 1 108 2 5 5 23 6 39 3 38 50 290 62 330 5 17 11 41 14 55
2 14 9 45 16 70 11 41 20 92 35 210 11 83 12 289 2 283 -6 -4 -8 5 -5 20 3 15
1 24 -3 21 -5 -3 -13 6 -19 21 -15 39 -59 72 -119 89 -40 11 -58 13 -68 5 -7
-6 -21 -8 -30 -5 -10 4 -14 4 -11 0 4 -3 -6 -17 -23 -31 -16 -14 -29 -31 -29
-39 0 -9 -5 -12 -12 -8 -6 4 -8 3 -5 -3 4 -6 0 -24 -8 -39 -8 -16 -15 -37 -15
-47 0 -11 -4 -15 -12 -11 -6 4 -9 3 -5 -2 3 -5 -4 -68 -14 -139 -11 -72 -22
-146 -24 -167 -2 -20 -16 -81 -30 -135 -15 -54 -32 -115 -37 -135 -9 -34 -28
-53 -28 -29 0 18 -66 75 -109 94 -54 24 -121 19 -188 -14 -50 -24 -55 -21 -73
36 -15 50 -75 107 -128 123 -53 16 -145 15 -186 -2 -18 -7 -49 -28 -70 -46
-20 -18 -38 -31 -40 -29 -11 11 -80 289 -80 321 0 20 -3 35 -7 32 -10 -6 -21
64 -13 78 4 6 3 8 -3 5 -12 -8 -27 88 -17 105 4 7 3 8 -4 4 -8 -5 -12 6 -12
36 -1 85 -11 166 -23 186 -5 6 -5 17 -2 22 4 6 2 16 -3 23 -9 11 -23 118 -24
180 -1 16 -4 24 -8 17 -4 -6 -14 8 -24 34 -9 25 -35 60 -56 80 -21 19 -35 37
-32 41 4 3 -2 3 -12 -1 -12 -5 -17 -4 -13 3 4 6 -3 8 -20 5 -17 -3 -24 -1 -20
6 5 6 -6 10 -28 9 -19 -1 -35 -5 -35 -10z m162 -99 c36 -43 75 -183 83 -298 4
-47 10 -92 15 -100 4 -8 11 -43 14 -76 7 -71 23 -190 31 -219 2 -11 12 -47 20
-80 25 -95 47 -189 47 -205 0 -8 4 -19 8 -25 4 -5 11 -25 15 -42 3 -18 16 -41
29 -50 12 -11 20 -26 18 -37 -3 -11 5 -26 17 -35 22 -16 21 -17 -19 -41 -23
-14 -57 -35 -76 -47 -42 -27 -48 -28 -36 -6 7 12 5 24 -5 40 -10 15 -11 23 -4
23 26 0 -9 268 -39 305 -7 8 -9 28 -5 48 4 19 2 59 -4 88 -6 30 -13 70 -15 89
-8 56 -48 214 -59 228 -6 7 -11 59 -13 115 -3 142 -53 339 -89 360 -9 4 -13
13 -9 18 8 14 41 -9 76 -53z m-87 22 c7 -6 20 -36 30 -68 10 -31 22 -62 27
-69 5 -7 7 -16 5 -20 -3 -5 1 -35 8 -67 15 -65 22 -182 11 -193 -7 -7 -86 -32
-118 -37 -10 -1 -21 -6 -25 -10 -5 -4 27 -6 69 -4 43 3 81 2 86 -1 15 -9 69
-240 76 -317 2 -27 7 -56 10 -65 8 -19 -40 -42 -127 -60 -32 -7 -60 -16 -63
-21 -5 -7 102 -3 168 7 30 5 30 4 48 -90 7 -33 16 -78 21 -100 15 -72 12 -92
-18 -103 -24 -8 -115 -36 -162 -49 -8 -2 -11 -6 -8 -9 3 -3 49 0 102 6 53 6
99 9 102 7 2 -3 -53 -35 -124 -71 -72 -36 -132 -61 -137 -56 -4 4 -10 23 -11
42 -2 18 -5 35 -6 38 -1 3 -1 9 0 13 1 5 -5 43 -14 85 -8 42 -22 124 -30 182
-8 58 -19 129 -25 159 -7 30 -10 65 -7 78 2 13 1 23 -2 23 -3 0 -7 44 -9 98
-1 53 -9 167 -17 252 -22 227 -20 334 6 376 29 48 58 66 93 59 16 -3 35 -10
41 -15z m-188 -207 c-2 -21 -4 -6 -4 32 0 39 2 55 4 38 2 -18 2 -50 0 -70z
m1719 -345 c28 -29 29 -32 28 -131 -1 -89 -16 -186 -43 -277 -9 -28 -17 -29
-116 -17 -74 9 -62 -3 25 -28 36 -10 68 -21 71 -24 4 -3 3 -35 -2 -71 -5 -36
-11 -81 -13 -100 -2 -20 -12 -53 -22 -75 -21 -44 -21 -44 -149 -29 -68 8 -51
-4 42 -31 l78 -23 6 -48 c7 -65 4 -116 -11 -191 l-14 -63 -45 1 c-25 0 -68 4
-94 8 -69 11 -44 -6 44 -30 41 -12 78 -24 82 -29 9 -8 15 -220 7 -220 -3 0 -4
-17 -2 -37 5 -50 -12 -91 -42 -104 -20 -10 -33 -7 -78 16 -29 15 -66 38 -83
52 l-30 25 37 -6 c21 -4 61 -3 90 1 l53 7 -40 7 c-94 16 -146 29 -169 45 -28
18 -28 33 0 209 8 50 23 151 34 225 22 154 34 212 50 255 11 27 47 156 55 195
28 135 35 178 45 248 6 46 16 96 22 110 6 15 12 37 13 49 4 29 52 91 83 107
33 17 53 11 88 -26z m68 -22 c34 -72 43 -169 26 -281 -5 -33 -12 -91 -16 -130
-3 -38 -10 -84 -15 -101 -5 -17 -11 -41 -14 -53 -2 -11 -11 -48 -19 -80 -8
-32 -22 -98 -30 -147 -9 -49 -18 -100 -22 -114 -19 -89 -20 -96 -14 -475 2
-172 -16 -279 -86 -515 -9 -30 -23 -83 -32 -117 -9 -35 -20 -63 -25 -63 -4 0
-6 8 -3 18 2 9 16 74 30 144 14 69 33 153 42 185 34 126 28 167 -25 162 -44
-4 -199 51 -209 74 -2 4 -8 7 -14 7 -6 0 -32 13 -58 29 l-48 30 -21 -23 c-12
-12 -19 -25 -17 -27 3 -3 -6 -18 -19 -34 l-25 -30 11 33 c6 18 9 36 6 39 -4 3
4 14 16 23 19 16 22 29 24 97 1 43 4 114 7 158 2 44 5 97 5 118 1 21 5 36 10
32 6 -3 6 6 1 24 -4 16 -4 33 0 37 10 10 18 314 9 308 -8 -4 -20 38 -14 45 3
2 5 -1 5 -7 0 -7 4 -12 8 -12 5 0 29 -20 54 -44 l46 -44 -24 -164 c-14 -89
-27 -185 -30 -213 -3 -27 -10 -66 -15 -85 -5 -19 -9 -63 -9 -97 0 -59 1 -62
35 -83 19 -12 35 -29 35 -39 0 -15 42 -61 56 -61 3 0 22 -11 42 -25 72 -49
152 -20 165 59 10 56 7 301 -2 316 -7 10 -6 19 3 30 29 35 51 300 25 315 -7 5
-6 12 4 23 35 41 84 270 65 305 -7 14 -5 24 8 38 9 11 19 29 20 42 2 12 8 45
14 72 12 54 17 104 24 206 4 53 1 74 -14 102 -15 27 -16 35 -6 31 8 -3 21 -20
30 -38z m-1839 -324 c5 -41 5 -41 -52 -79 -122 -80 -225 -215 -273 -358 -24
-70 -27 -96 -27 -205 0 -69 3 -132 7 -140 4 -8 10 -33 14 -55 3 -22 15 -74 26
-115 12 -41 28 -104 37 -140 8 -36 19 -69 23 -75 4 -5 11 -26 15 -45 17 -83
127 -347 208 -500 143 -271 262 -459 346 -545 22 -22 47 -55 56 -73 35 -70
230 -283 340 -371 191 -153 320 -145 520 29 69 61 96 89 145 150 19 25 49 57
65 72 68 63 98 96 130 143 19 28 53 75 75 105 22 30 49 71 60 90 11 19 26 44
33 54 72 114 100 164 192 346 45 90 125 259 125 266 0 2 8 23 19 47 49 110 74
176 87 222 7 28 24 91 38 140 46 165 69 324 63 443 -6 131 -26 207 -76 292
-39 65 -164 200 -186 200 -21 0 -38 46 -31 84 4 20 10 36 14 36 18 0 105 -63
155 -112 96 -94 154 -192 197 -334 18 -62 20 -89 16 -205 -5 -138 -19 -261
-36 -314 -5 -16 -11 -42 -12 -57 -1 -16 -5 -28 -9 -28 -3 0 -6 -6 -7 -12 -1
-13 -9 -46 -32 -138 -6 -24 -15 -49 -20 -56 -6 -6 -8 -13 -5 -16 3 -3 -1 -18
-10 -34 -8 -16 -15 -33 -15 -37 0 -9 -24 -68 -41 -99 -5 -10 -9 -22 -9 -27 0
-10 -73 -175 -89 -201 -6 -8 -22 -40 -37 -70 -44 -88 -154 -283 -170 -301 -8
-8 -14 -18 -14 -22 0 -4 -13 -26 -29 -49 -16 -24 -57 -85 -91 -137 -238 -360
-467 -602 -631 -664 -136 -52 -231 -38 -369 54 -122 80 -214 171 -367 364 -9
11 -39 47 -68 80 -104 121 -255 364 -382 615 -90 180 -99 199 -134 285 -12 28
-29 70 -39 95 -65 158 -140 415 -156 535 -3 22 -9 58 -14 80 -17 73 -12 258
10 356 38 171 114 280 279 404 57 42 122 78 128 71 2 -1 5 -21 8 -44z m2225
-129 c0 -8 -9 0 -50 45 l-45 47 48 -45 c26 -24 47 -45 47 -47z m-1341 -49 c29
-24 31 -29 31 -100 0 -61 3 -72 15 -68 8 4 15 2 15 -4 0 -5 -7 -15 -15 -22 -9
-7 -15 -29 -15 -53 0 -48 10 -41 34 25 13 35 15 52 7 67 -6 11 -11 37 -11 58
0 21 -4 53 -9 71 -6 19 -6 32 0 32 14 0 67 -78 74 -110 4 -16 15 -32 25 -35
16 -5 18 -10 9 -33 -6 -15 -13 -38 -15 -52 -2 -14 -6 -34 -9 -45 -2 -11 -7
-42 -10 -70 -4 -27 -15 -102 -25 -165 -11 -63 -22 -146 -25 -185 -4 -38 -12
-83 -18 -99 -10 -27 -11 -27 -24 -10 -15 21 -17 70 -3 162 13 96 19 267 10
282 -11 18 -17 -17 -35 -230 -12 -130 -13 -181 -5 -201 6 -15 10 -42 8 -60
l-4 -34 -11 37 c-18 58 -49 95 -97 113 -38 14 -50 15 -83 5 -49 -16 -81 -46
-100 -92 -8 -21 -19 -38 -25 -38 -10 0 -5 23 17 77 7 17 11 34 7 37 -3 3 0 6
6 6 6 0 9 6 6 14 -7 18 129 131 159 132 42 1 96 15 103 26 5 8 -7 9 -40 6 -31
-4 -46 -2 -46 6 0 20 23 36 52 36 15 0 28 5 28 10 0 6 -7 10 -15 10 -20 0 -20
2 14 63 16 28 32 63 36 77 14 45 -21 5 -65 -75 -22 -40 -47 -78 -55 -85 -8 -7
-15 -18 -15 -25 0 -6 -10 -16 -23 -22 -12 -6 -50 -33 -83 -61 -50 -42 -65 -62
-82 -109 -31 -85 -32 -115 -5 -129 13 -6 20 -13 17 -17 -11 -10 29 -79 53 -90
28 -12 30 -27 4 -27 -10 0 -24 -6 -30 -14 -17 -20 29 -61 87 -77 110 -31 246
23 209 83 -11 17 -67 31 -67 16 0 -4 -5 -8 -12 -8 -6 0 3 14 20 31 18 17 32
39 32 49 0 9 3 19 6 23 9 9 64 -58 64 -79 0 -11 6 -26 13 -34 17 -22 68 -57
92 -63 11 -3 -4 -5 -33 -4 -73 1 -87 -15 -44 -54 18 -16 40 -29 50 -29 10 0
22 -3 26 -7 10 -11 35 -14 101 -15 33 0 51 -3 40 -5 -34 -8 -39 -22 -11 -29
42 -10 102 15 157 64 27 24 49 48 49 52 0 5 -20 -3 -45 -17 -38 -21 -63 -26
-150 -31 -107 -5 -166 7 -220 45 -18 13 -16 13 20 6 59 -12 163 -9 177 5 7 7
20 12 30 12 23 0 88 65 88 89 0 28 10 31 37 14 52 -35 171 -96 188 -98 6 -1
27 -7 48 -14 22 -7 52 -10 69 -7 26 5 29 3 23 -12 -3 -9 -8 -33 -11 -52 -2
-19 -11 -60 -19 -90 -26 -97 -66 -284 -71 -334 -2 -26 -9 -56 -14 -65 -5 -10
-12 -42 -16 -72 -6 -49 -12 -59 -63 -109 -58 -56 -139 -102 -198 -113 -18 -4
-33 -5 -33 -2 0 2 33 28 73 58 72 54 157 138 157 156 0 6 -32 -3 -71 -20 -40
-16 -74 -29 -77 -29 -3 0 6 12 20 28 15 15 45 61 68 103 31 59 42 92 47 142 5
60 9 70 49 112 24 25 44 53 44 62 0 14 -4 13 -22 -5 -13 -11 -34 -23 -48 -27
-21 -5 -30 0 -48 24 -29 40 -104 78 -187 95 -36 7 -72 19 -80 26 -13 11 -14
10 -9 -4 5 -14 89 -66 89 -56 0 2 17 0 39 -4 44 -8 99 -41 138 -83 l27 -28
-14 -89 c-8 -49 -16 -91 -19 -93 -7 -7 -18 36 -12 46 9 14 -53 128 -90 165
-74 74 -313 159 -484 173 -126 10 -212 62 -262 157 -24 46 -60 187 -60 231 1
37 -22 75 -46 75 -9 0 6 11 33 24 144 67 350 276 377 382 8 32 18 49 26 46 6
-2 12 4 12 12 0 23 -44 108 -67 128 -46 42 -132 59 -187 38 -31 -12 -32 -8 -5
40 30 52 80 77 161 79 36 1 53 -5 77 -25z m-124 -131 c0 -7 15 -26 33 -42 37
-35 52 -68 52 -119 0 -49 -20 -80 -119 -184 -182 -192 -334 -266 -430 -207
-43 26 -50 18 -14 -16 46 -43 80 -57 136 -54 l52 3 7 -62 c10 -87 44 -206 72
-250 30 -48 99 -110 142 -128 27 -11 165 -32 242 -37 6 0 12 -3 12 -6 0 -3 10
-7 23 -8 30 -2 151 -39 189 -57 17 -9 36 -16 41 -16 6 0 33 -17 62 -39 55 -42
115 -138 115 -185 0 -100 -135 -229 -274 -262 -26 -6 -57 -9 -69 -6 -14 3 -18
1 -13 -6 16 -26 181 -5 232 30 18 12 32 25 31 29 -2 7 70 89 78 89 14 0 -78
-120 -127 -166 -62 -59 -155 -109 -223 -119 -5 -1 -19 -3 -30 -5 -41 -6 94
-18 212 -19 110 -1 123 -3 133 -20 6 -12 10 -95 10 -200 l0 -180 -75 -67 c-95
-85 -168 -136 -222 -153 -66 -22 -145 -7 -228 41 -81 47 -235 193 -336 317
l-68 85 5 125 c4 71 2 145 -4 169 -8 34 -7 42 4 42 8 0 14 -4 14 -8 0 -10 120
-67 170 -81 59 -17 170 -17 170 -1 0 6 -15 10 -32 10 -113 0 -302 107 -392
220 -82 104 -76 98 -71 72 2 -12 7 -28 11 -35 6 -8 3 -8 -9 1 -48 40 -149 302
-163 425 -3 23 -7 65 -11 92 -7 68 -4 178 6 188 5 5 12 -18 16 -49 4 -32 8
-65 10 -74 1 -8 6 -35 10 -60 27 -168 116 -384 195 -467 27 -29 14 -30 -17 -1
-13 12 -26 18 -30 15 -14 -15 100 -109 179 -147 44 -22 85 -40 91 -40 5 0 -17
20 -49 44 -117 87 -200 191 -263 329 -88 193 -148 656 -107 817 33 128 72 175
185 222 36 16 68 28 71 28 4 0 14 -17 24 -37 29 -61 74 -111 112 -123 128 -43
316 102 285 218 -11 40 -68 115 -81 107 -4 -3 -19 4 -31 15 l-24 20 40 -2 c23
-2 40 -8 40 -15z m502 -18 c27 -27 34 -41 29 -58 -3 -12 -6 -77 -6 -145 l0
-124 -37 7 c-90 16 -104 17 -120 10 -10 -5 -23 -7 -29 -6 -6 0 -18 -6 -25 -16
-12 -15 -12 -16 4 -10 10 4 58 4 107 0 86 -6 90 -7 90 -30 0 -31 -18 -37 -63
-18 -40 17 -134 20 -157 5 -12 -7 -11 -9 5 -9 11 1 46 -4 78 -11 32 -6 75 -12
95 -14 29 -1 37 -6 37 -21 0 -18 -6 -20 -55 -17 -30 1 -77 5 -105 8 l-50 5 35
-20 c25 -15 54 -20 104 -21 l69 0 -9 -77 c-10 -100 -11 -161 -1 -195 12 -45
-6 -32 -32 22 -32 67 -65 90 -134 91 -66 2 -94 -16 -131 -81 -22 -39 -26 -41
-26 -20 0 14 9 45 21 69 16 36 44 193 48 271 2 29 50 330 56 349 9 29 55 70
89 80 57 17 77 12 113 -24z m-498 -88 c24 -49 19 -80 -18 -120 -33 -36 -107
-81 -120 -72 -6 3 -19 25 -29 49 -19 42 -67 86 -94 86 -7 0 1 -11 19 -25 42
-33 62 -91 39 -113 -14 -14 -19 -12 -56 26 -22 24 -47 56 -56 73 -19 37 -11
49 55 85 25 14 75 43 110 64 l64 39 33 -25 c18 -14 42 -44 53 -67z m-334 -37
c-10 -11 -23 -19 -29 -17 -6 3 -19 0 -28 -5 -11 -5 -18 -5 -18 1 0 5 14 12 30
16 17 4 30 11 30 16 0 5 7 9 17 9 14 0 14 -2 -2 -20z m-208 -68 c8 -5 -1 -21
-28 -49 -44 -47 -49 -43 -18 17 22 42 26 45 46 32z m576 -439 c11 -10 28 -36
38 -58 40 -87 14 -129 -79 -130 -66 0 -110 19 -131 56 -13 24 -13 31 2 70 32
81 114 111 170 62z m349 -58 c22 -9 68 -101 68 -137 0 -87 -204 -82 -235 6 -7
22 -5 36 13 69 36 68 88 89 154 62z m-388 -195 c23 1 59 7 80 15 43 15 56 12
56 -12 0 -10 -6 -13 -16 -9 -8 3 -13 2 -10 -3 9 -14 -89 -34 -126 -26 -44 10
-118 43 -118 54 0 5 21 3 47 -5 25 -8 65 -14 87 -14z m824 -622 c-22 -88 -30
-107 -22 -53 7 43 19 108 23 123 1 1 5 2 9 2 5 0 0 -33 -10 -72z m-1214 -90
l39 -36 -22 -27 c-18 -23 -21 -25 -21 -9 0 20 -37 100 -66 144 -9 14 -6 12 7
-5 13 -16 41 -46 63 -67z m994 -44 c9 4 0 -8 -21 -26 -20 -18 -61 -55 -89 -81
-45 -41 -57 -48 -88 -45 l-35 3 53 34 c29 19 65 50 80 70 44 59 45 60 65 49
10 -5 26 -7 35 -4z m162 -48 c-12 -25 -32 -61 -45 -79 -35 -52 -44 -94 -42
-195 2 -67 6 -95 16 -101 11 -7 3 -21 -34 -65 -27 -31 -51 -56 -54 -56 -3 0
-5 73 -3 162 3 152 2 163 -18 190 -12 16 -20 31 -18 32 1 2 24 13 50 26 26 13
73 49 105 80 32 31 60 55 62 54 2 -2 -7 -23 -19 -48z m-1143 -83 c-3 -10 -5
-2 -5 17 0 19 2 27 5 18 2 -10 2 -26 0 -35z m1023 -618 c-7 -9 -15 -13 -17
-11 -7 7 7 26 19 26 6 0 6 -6 -2 -15z"/>
<path d="M541 3794 c0 -11 3 -14 6 -6 3 7 2 16 -1 19 -3 4 -6 -2 -5 -13z"/>
<path d="M972 3660 c0 -14 2 -19 5 -12 2 6 2 18 0 25 -3 6 -5 1 -5 -13z"/>
<path d="M541 3644 c0 -11 3 -14 6 -6 3 7 2 16 -1 19 -3 4 -6 -2 -5 -13z"/>
<path d="M1415 3300 c2 -3 -28 -3 -67 -2 -39 2 -68 0 -65 -5 3 -4 -24 -9 -59
-9 -38 -1 -71 -7 -81 -15 -15 -12 -16 -12 -8 1 6 12 5 13 -6 3 -17 -16 -43
-17 -33 -1 5 7 3 8 -5 4 -7 -5 -9 -15 -6 -25 4 -9 8 -31 10 -49 2 -19 6 -37
10 -40 5 -4 5 7 1 23 -5 25 -4 27 5 12 6 -10 9 -27 6 -38 -3 -10 -1 -17 4 -13
5 3 9 0 9 -5 0 -11 89 -9 107 2 23 14 599 -3 624 -18 4 -3 27 -8 51 -11 24 -4
52 -13 63 -20 11 -8 29 -14 40 -13 16 0 15 2 -7 10 -24 9 -26 13 -17 38 6 16
9 32 8 37 -1 5 3 22 9 37 17 40 15 49 -8 42 -12 -4 -40 -3 -63 1 -34 5 -38 8
-22 15 15 6 10 8 -20 7 -22 0 -64 6 -94 12 -30 6 -65 10 -78 7 -13 -2 -23 0
-23 5 0 6 -32 9 -79 7 -44 -2 -78 -2 -76 1 2 3 -28 5 -65 5 -37 0 -67 -2 -65
-5z m420 -53 c39 -9 87 -18 108 -22 32 -5 36 -9 31 -29 -3 -12 -6 -30 -8 -39
-1 -9 -4 -19 -7 -21 -3 -3 -57 4 -120 15 -148 26 -456 34 -592 16 l-94 -14
-17 36 c-21 48 -10 57 89 69 116 15 523 7 610 -11z"/>
<path d="M1958 3253 c6 -2 18 -2 25 0 6 3 1 5 -13 5 -14 0 -19 -2 -12 -5z"/>
<path d="M1073 3113 c9 -2 25 -2 35 0 9 3 1 5 -18 5 -19 0 -27 -2 -17 -5z"/>
<path d="M2578 3023 c7 -3 16 -2 19 1 4 3 -2 6 -13 5 -11 0 -14 -3 -6 -6z"/>
<path d="M2443 2913 c9 -2 23 -2 30 0 6 3 -1 5 -18 5 -16 0 -22 -2 -12 -5z"/>
<path d="M96 2635 c-9 -26 -7 -32 5 -12 6 10 9 21 6 23 -2 3 -7 -2 -11 -11z"/>
<path d="M91 2064 c0 -11 3 -14 6 -6 3 7 2 16 -1 19 -3 4 -6 -2 -5 -13z"/>
</g>
</svg>
