<?xml version="1.0" standalone="no"?>
<!DOCTYPE svg PUBLIC "-//W3C//DTD SVG 20010904//EN"
 "http://www.w3.org/TR/2001/REC-SVG-20010904/DTD/svg10.dtd">
<svg version="1.0" xmlns="http://www.w3.org/2000/svg"
 width="375.000000pt" height="500.000000pt" viewBox="0 0 375.000000 500.000000"
 preserveAspectRatio="xMidYMid meet">
<metadata>
Created by potrace 1.16, written by Peter Selinger 2001-2019
</metadata>
<g transform="translate(0.000000,500.000000) scale(0.100000,-0.100000)"
fill="#000000" stroke="none">
<path d="M823 4935 c-59 -30 -83 -58 -112 -134 -23 -57 -29 -188 -12 -277 9
-46 19 -144 71 -664 11 -113 29 -254 40 -315 81 -454 78 -423 46 -482 -35 -66
-63 -145 -80 -229 -20 -97 -26 -723 -7 -839 33 -208 103 -382 235 -578 70
-105 77 -122 101 -266 23 -131 9 -223 -29 -192 -18 15 -188 271 -265 400 -63
103 -223 411 -253 486 -9 22 -32 78 -51 125 -54 132 -103 277 -154 459 -85
305 -85 307 -86 516 l-1 190 35 85 c70 171 192 319 327 399 l72 43 -7 67 c-4
36 -7 78 -7 93 l1 27 -66 -35 c-227 -120 -415 -323 -470 -509 -13 -44 -28 -91
-33 -105 -6 -14 -15 -86 -21 -160 -9 -113 -8 -157 6 -265 18 -140 84 -415 140
-585 73 -222 223 -575 311 -735 19 -33 55 -100 81 -150 26 -49 53 -97 59 -105
7 -8 30 -44 51 -80 78 -133 207 -320 292 -421 49 -57 101 -122 118 -144 55
-74 78 -100 194 -214 64 -62 134 -125 155 -138 22 -14 48 -34 59 -44 35 -32
185 -100 246 -110 64 -12 171 0 225 23 144 63 194 99 358 258 129 124 144 142
305 362 266 364 435 640 608 997 231 473 374 1033 349 1366 -12 160 -79 335
-185 480 -80 110 -313 295 -339 269 -5 -5 -12 -48 -15 -94 l-6 -85 42 -25 c23
-14 79 -62 125 -107 144 -142 204 -301 204 -541 0 -125 -15 -232 -50 -377 -32
-132 -89 -337 -100 -360 -5 -11 -23 -56 -41 -100 -17 -44 -44 -109 -61 -145
-17 -36 -36 -81 -43 -100 -11 -31 -65 -141 -179 -370 -21 -41 -53 -100 -71
-130 -18 -30 -63 -106 -100 -169 -110 -185 -309 -456 -327 -445 -4 3 -8 65 -8
138 l0 132 36 60 c20 32 45 73 55 89 29 48 78 196 99 302 21 104 65 272 81
312 6 13 28 96 49 183 53 213 63 337 50 620 -10 217 -10 226 15 378 30 178 53
291 91 440 14 58 30 134 34 170 5 36 15 117 24 180 19 136 20 205 5 285 -29
158 -135 250 -265 230 -36 -5 -55 -16 -85 -46 -21 -22 -45 -52 -53 -67 -29
-58 -64 -191 -75 -292 -7 -58 -21 -152 -32 -210 -22 -117 -86 -360 -99 -373
-4 -5 -22 10 -40 32 -41 53 -105 90 -167 97 -55 7 -156 -10 -190 -32 -41 -26
-57 -18 -77 39 -23 66 -103 147 -162 165 -52 15 -188 14 -232 -1 -18 -7 -55
-32 -83 -56 -28 -24 -54 -40 -59 -35 -21 21 -149 568 -165 704 -65 553 -89
632 -220 728 -20 14 -51 23 -95 27 -57 6 -71 3 -117 -20z m124 -65 c33 -20 55
-59 68 -121 4 -19 14 -42 22 -51 8 -9 12 -21 9 -26 -3 -5 1 -43 8 -83 23 -123
29 -234 14 -246 -14 -11 -138 -52 -166 -55 -9 -1 30 -4 87 -7 l104 -6 28 -105
c23 -85 69 -340 69 -381 0 -14 -62 -49 -90 -50 -14 0 -50 -9 -80 -20 l-55 -19
118 4 c114 4 117 4 122 -17 23 -97 38 -174 47 -240 10 -65 9 -80 -3 -91 -8 -8
-59 -29 -114 -47 -96 -33 -98 -34 -58 -37 23 -2 72 1 110 6 114 16 102 2 -83
-89 -98 -49 -148 -69 -155 -62 -9 9 -45 214 -83 478 -9 61 -21 135 -26 165
-15 85 -52 614 -57 817 -5 174 -4 184 16 217 27 43 77 86 99 86 9 0 32 -9 49
-20z m1934 -696 c30 -31 34 -41 37 -102 6 -106 -28 -348 -58 -419 -9 -22 -13
-23 -102 -17 l-93 5 83 -30 c45 -16 86 -32 91 -35 18 -12 -18 -239 -50 -312
l-20 -47 -102 6 c-95 5 -100 4 -68 -9 19 -8 59 -22 90 -30 31 -9 62 -21 69
-27 25 -20 0 -317 -30 -362 -4 -7 -32 -8 -80 -4 -155 16 -168 5 -36 -31 127
-34 118 -22 117 -163 -1 -178 -12 -283 -34 -307 -35 -39 -113 -18 -204 55
l-44 35 64 1 c117 2 118 12 6 38 -57 13 -114 31 -128 41 l-23 18 21 169 c62
471 71 521 157 822 19 68 45 183 56 255 48 290 67 365 111 426 33 45 77 69
114 62 13 -2 38 -19 56 -38z m-1100 -661 c29 -28 31 -37 36 -117 3 -47 10 -86
14 -86 14 0 10 -27 -6 -40 -8 -7 -15 -29 -16 -49 l-1 -36 -9 31 c-14 50 -70
126 -117 159 -41 28 -50 30 -133 30 -49 0 -89 4 -89 9 0 18 43 76 71 97 44 31
76 39 152 36 60 -2 70 -6 98 -34z m472 -183 c26 -29 27 -34 27 -144 0 -62 -3
-148 -7 -190 -7 -87 1 -82 -95 -55 -39 11 -56 11 -100 0 -29 -8 -57 -16 -63
-20 -5 -3 46 -10 115 -16 l125 -10 3 -28 c4 -36 -15 -42 -70 -24 -63 22 -192
27 -173 8 15 -14 140 -41 191 -41 31 0 46 -5 50 -15 8 -20 -15 -47 -35 -41 -9
2 -61 7 -116 10 l-100 6 40 -22 c32 -17 57 -22 124 -22 l83 -1 -8 -95 c-5 -52
-8 -134 -7 -182 0 -49 -1 -88 -3 -88 -2 0 -17 27 -34 59 -37 73 -76 103 -144
109 -85 6 -125 -13 -173 -86 -39 -58 -43 -61 -43 -35 0 15 11 52 25 81 18 40
30 95 45 215 11 89 25 191 30 227 58 366 60 374 112 405 76 44 158 43 201 -5z
m-698 -25 c49 -38 88 -102 88 -147 0 -29 -9 -48 -38 -83 -34 -42 -117 -95
-148 -95 -7 0 -28 28 -45 63 -25 49 -41 67 -69 81 l-36 17 30 -35 c40 -45 60
-101 43 -121 -7 -8 -18 -15 -26 -15 -24 0 -78 57 -109 113 -35 66 -35 67 73
133 42 26 99 62 127 80 27 19 55 34 63 34 7 0 28 -11 47 -25z m118 -24 c47
-52 63 -110 47 -167 -14 -48 -57 -103 -173 -222 -100 -103 -177 -164 -274
-214 -89 -46 -167 -52 -234 -17 -38 19 -40 19 -30 1 28 -53 121 -95 198 -91
l48 3 6 -59 c10 -102 58 -265 95 -327 72 -118 174 -175 337 -188 138 -11 350
-69 480 -130 115 -54 208 -181 210 -285 1 -43 -5 -61 -32 -104 -62 -96 -186
-185 -302 -215 -47 -12 -51 -15 -29 -20 36 -10 155 11 201 35 22 10 39 15 39
9 0 -5 -26 -36 -58 -67 -61 -62 -130 -100 -230 -130 -34 -10 -62 -21 -62 -24
0 -7 213 -19 327 -19 105 0 103 6 103 -265 l0 -221 -82 -80 c-175 -168 -303
-235 -418 -219 -109 15 -262 118 -420 282 -107 111 -245 278 -245 296 0 7 4
64 9 127 5 75 4 143 -3 194 -6 44 -9 81 -7 83 2 2 20 -7 40 -21 97 -65 291
-117 364 -96 l27 7 -30 7 c-201 46 -382 150 -478 276 -63 83 -75 121 -24 74
54 -51 101 -81 180 -118 93 -44 112 -46 61 -5 -217 171 -332 343 -400 597 -62
235 -102 663 -76 817 28 167 92 248 237 304 83 32 90 33 99 16 51 -86 90 -137
122 -161 32 -25 46 -29 98 -28 127 2 273 106 299 214 9 37 -7 93 -41 144 -38
56 -27 60 21 7z m123 -318 c-3 -54 -13 -163 -22 -243 -15 -134 -15 -149 0
-193 9 -26 16 -54 16 -62 0 -27 -16 -15 -29 21 -20 56 -90 120 -138 129 -83
14 -164 -29 -205 -109 -30 -58 -34 -28 -7 57 24 76 43 101 135 173 39 31 64
42 100 47 27 3 63 11 79 19 l30 13 -52 3 c-29 2 -53 7 -53 11 0 15 35 39 70
49 32 10 33 11 13 17 -29 9 -29 14 0 53 13 17 32 50 42 72 10 22 20 40 23 40
3 0 2 -44 -2 -97z m-126 -428 c35 -34 73 -123 68 -162 -10 -89 -255 -86 -289
4 -22 58 29 162 91 187 34 13 101 -2 130 -29z m430 -70 c35 -18 93 -129 88
-170 -5 -42 -45 -66 -120 -72 -52 -4 -72 -2 -105 16 -75 38 -89 81 -52 157 36
75 119 105 189 69z m225 -155 c12 -19 212 -120 280 -141 37 -11 83 -19 102
-17 43 5 46 34 -27 -297 -24 -111 -73 -345 -97 -473 -16 -82 -17 -83 -83 -145
-79 -75 -139 -112 -216 -132 -62 -16 -79 -13 -48 9 126 90 264 218 264 248 0
4 -26 -2 -57 -13 -32 -12 -70 -25 -86 -29 -31 -10 -31 -10 19 60 71 101 114
214 114 302 0 26 6 52 13 57 53 43 77 70 83 94 l6 28 -33 -20 c-56 -32 -71
-30 -113 16 -44 49 -118 88 -192 102 -29 6 -67 17 -85 25 l-34 14 40 1 c22 1
59 10 82 20 42 20 133 96 133 112 0 5 -24 -1 -52 -13 -43 -17 -79 -22 -188
-25 -132 -4 -136 -3 -195 25 l-60 28 110 0 c100 -1 115 1 168 27 63 30 103 68
113 107 11 41 25 53 39 30z"/>
<path d="M1666 4110 c-123 -10 -276 -29 -288 -36 -4 -3 -8 -10 -8 -17 0 -16
51 -147 57 -147 3 0 53 7 112 16 196 30 726 6 914 -41 24 -6 25 -4 37 67 7 40
14 76 16 79 7 12 -218 58 -326 68 -164 15 -394 20 -514 11z"/>
</g>
</svg>
